<?xml version="1.0" encoding="UTF-8" standalone="no"?>
<!-- Created with Inkscape (http://www.inkscape.org/) -->

<svg
   width="512"
   height="512"
   viewBox="0 0 135.46666 135.46667"
   version="1.1"
   id="svg5"
   inkscape:version="1.1.1 (c3084ef, 2021-09-22)"
   sodipodi:docname="icon.svg"
   inkscape:export-filename="/Users/olafneumann/git/github/noxone/regex-generator/raw/rg_168.png"
   inkscape:export-xdpi="31.500002"
   inkscape:export-ydpi="31.500002"
   xmlns:inkscape="http://www.inkscape.org/namespaces/inkscape"
   xmlns:sodipodi="http://sodipodi.sourceforge.net/DTD/sodipodi-0.dtd"
   xmlns="http://www.w3.org/2000/svg"
   xmlns:svg="http://www.w3.org/2000/svg">
  <sodipodi:namedview
     id="namedview7"
     pagecolor="#ffffff"
     bordercolor="#999999"
     borderopacity="1"
     inkscape:pageshadow="0"
     inkscape:pageopacity="0"
     inkscape:pagecheckerboard="0"
     inkscape:document-units="mm"
     showgrid="false"
     units="px"
     inkscape:zoom="0.91100744"
     inkscape:cx="322.1708"
     inkscape:cy="243.13742"
     inkscape:window-width="1383"
     inkscape:window-height="847"
     inkscape:window-x="0"
     inkscape:window-y="25"
     inkscape:window-maximized="0"
     inkscape:current-layer="layer1" />
  <defs
     id="defs2">
    <filter
       inkscape:collect="always"
       style="color-interpolation-filters:sRGB"
       id="filter4837"
       x="-0.090334153"
       y="-0.13425508"
       width="1.1806683"
       height="1.2685102">
      <feGaussianBlur
         inkscape:collect="always"
         stdDeviation="3.6769619"
         id="feGaussianBlur4839" />
    </filter>
    <filter
       inkscape:collect="always"
       style="color-interpolation-filters:sRGB"
       id="filter5398"
       x="-0.040313871"
       y="-0.040313871"
       width="1.0806277"
       height="1.0806277">
      <feGaussianBlur
         inkscape:collect="always"
         stdDeviation="13.116699"
         id="feGaussianBlur5400" />
    </filter>
  </defs>
  <g
     inkscape:label="Ebene 1"
     inkscape:groupmode="layer"
     id="layer1">
    <path
       sodipodi:type="star"
       style="opacity:0.61;mix-blend-mode:normal;fill:#212529;fill-opacity:1;filter:url(#filter5398)"
       id="path1498-0"
       inkscape:flatsided="true"
       sodipodi:sides="4"
       sodipodi:cx="16.164284"
       sodipodi:cy="-237.07616"
       sodipodi:r1="433.75183"
       sodipodi:r2="216.87592"
       sodipodi:arg1="0.45438861"
       sodipodi:arg2="1.2397868"
       inkscape:rounded="0.05"
       inkscape:randomized="0"
       transform="matrix(0.1809796,0.04382776,-0.06216095,0.12760314,52.108742,99.22591)"
       inkscape:transform-center-x="4.8323948"
       inkscape:transform-center-y="2.1387482"
       d="m 405.90312,-46.69682 c -13.46185,27.558697 -552.55948,212.82135 -580.11817,199.3595 -27.5587,-13.46185 -212.82135,-552.55948 -199.3595,-580.11817 13.46185,-27.5587 552.55947,-212.82135 580.11817,-199.3595 27.5587,13.46185 212.82135,552.559473 199.3595,580.11817 z" />
    <path
       sodipodi:type="star"
       style="fill:#ffc107;fill-opacity:0.997925"
       id="path1498"
       inkscape:flatsided="true"
       sodipodi:sides="4"
       sodipodi:cx="16.164284"
       sodipodi:cy="-237.07616"
       sodipodi:r1="433.75183"
       sodipodi:r2="216.87592"
       sodipodi:arg1="0.45438861"
       sodipodi:arg2="1.2397868"
       inkscape:rounded="0.05"
       inkscape:randomized="0"
       d="m 405.90312,-46.69682 c -13.46185,27.558697 -552.55948,212.82135 -580.11817,199.3595 -27.5587,-13.46185 -212.82135,-552.55948 -199.3595,-580.11817 13.46185,-27.5587 552.55947,-212.82135 580.11817,-199.3595 27.5587,13.46185 212.82135,552.559473 199.3595,580.11817 z"
       transform="matrix(0.1809796,0.04382776,-0.06216095,0.12760314,50.09886,97.216034)"
       inkscape:transform-center-x="4.832396"
       inkscape:transform-center-y="2.1387492" />
    <g
       aria-label="(.*)"
       transform="matrix(0.94954942,0,0,0.94954942,3.4049607,3.9114286)"
       id="text2656-8"
       style="font-weight:800;font-size:74.0213px;line-height:1.25;font-family:Avenir;-inkscape-font-specification:'Avenir, Ultra-Bold';opacity:0.5;fill:#212529;stroke-width:0.386;filter:url(#filter4837)">
      <path
         d="m 39.47866,40.841586 q -2.220639,3.553022 -3.99715,6.80996 -1.776512,3.256937 -3.034874,6.661917 -1.184341,3.330958 -1.850532,7.032023 -0.666192,3.627044 -0.666192,7.92028 0,4.293235 0.666192,7.9943 0.666191,3.627044 1.850532,7.032024 1.258362,3.330958 3.034874,6.587896 1.776511,3.256937 3.99715,6.809959 l -7.624194,4.441275 -0.148043,-0.29608 q -5.10747,-7.624196 -7.920279,-15.470454 -2.738788,-7.920279 -2.738788,-17.09892 0,-9.178642 2.738788,-17.0249 2.812809,-7.920279 7.920279,-15.544473 l 0.148043,-0.296085 z"
         id="path840" />
      <path
         d="m 45.211841,84.218069 q 0,-1.406405 0.518149,-2.664767 0.51815,-1.258362 1.406405,-2.146618 0.962277,-0.962277 2.220639,-1.480426 1.258362,-0.518149 2.664767,-0.518149 1.406405,0 2.664767,0.518149 1.258362,0.518149 2.146618,1.480426 0.962277,0.888256 1.480426,2.146618 0.518149,1.258362 0.518149,2.664767 0,1.406404 -0.518149,2.664766 -0.518149,1.258363 -1.480426,2.220639 -0.888256,0.888256 -2.146618,1.406405 -1.258362,0.518149 -2.664767,0.518149 -1.406405,0 -2.664767,-0.518149 Q 48.098672,89.99173 47.136395,89.103474 46.24814,88.141198 45.72999,86.882835 45.211841,85.624473 45.211841,84.218069 Z"
         id="path842" />
      <path
         d="m 84.729965,48.391759 9.69679,-3.182916 2.220639,7.032023 -9.69679,3.108895 6.143768,8.438428 -6.143768,4.5153 -6.21779,-8.51245 -5.995725,8.142343 -5.995726,-4.515299 6.21779,-8.068322 -9.844833,-3.40498 2.368681,-7.032023 9.696791,3.479001 v -10.21494 h 7.550173 z"
         id="path844" />
      <path
         d="m 100.30567,97.689945 q 2.22064,-3.553022 3.99715,-6.809959 1.77651,-3.256938 2.96085,-6.587896 1.25836,-3.40498 1.92455,-7.032024 0.66619,-3.701065 0.66619,-7.9943 0,-4.293236 -0.66619,-7.92028 -0.66619,-3.701065 -1.92455,-7.032023 -1.18434,-3.40498 -2.96085,-6.661917 -1.77651,-3.256938 -3.99715,-6.80996 l 7.62419,-4.441278 0.14804,0.296085 q 5.10747,7.624194 7.84626,15.544473 2.81281,7.846258 2.81281,17.0249 0,9.178641 -2.81281,17.09892 -2.73879,7.846258 -7.84626,15.470454 l -0.14804,0.29608 z"
         id="path846" />
    </g>
    <g
       aria-label="(.*)"
       id="text2656"
       style="font-weight:800;font-size:70.2869px;line-height:1.25;font-family:Avenir;-inkscape-font-specification:'Avenir, Ultra-Bold';fill:#212529;stroke-width:0.366077">
      <path
         d="m 38.882027,40.682644 q -2.108608,3.373772 -3.795493,6.466395 -1.686886,3.092624 -2.881763,6.325822 -1.124591,3.16291 -1.757173,6.677256 -0.632582,3.444058 -0.632582,7.520698 0,4.076641 0.632582,7.590986 0.632582,3.444058 1.757173,6.677256 1.194877,3.16291 2.881763,6.255534 1.686885,3.092624 3.795493,6.466395 L 31.642476,98.8802 31.501902,98.599053 Q 26.652105,91.359502 23.981203,83.90909 21.380588,76.388391 21.380588,67.672815 q 0,-8.715576 2.600615,-16.165988 2.670902,-7.520698 7.520699,-14.760249 l 0.140574,-0.281148 z"
         id="path831" />
      <path
         d="m 44.325967,81.87077 q 0,-1.335451 0.492008,-2.530329 0.492008,-1.194877 1.335451,-2.03832 0.91373,-0.91373 2.108607,-1.405738 1.194878,-0.492008 2.530329,-0.492008 1.335451,0 2.530328,0.492008 1.194878,0.492008 2.038321,1.405738 0.913729,0.843443 1.405738,2.03832 0.492008,1.194878 0.492008,2.530329 0,1.335451 -0.492008,2.530328 -0.492009,1.194878 -1.405738,2.108607 -0.843443,0.843443 -2.038321,1.335452 -1.194877,0.492008 -2.530328,0.492008 -1.335451,0 -2.530329,-0.492008 -1.194877,-0.492009 -2.108607,-1.335452 -0.843443,-0.913729 -1.335451,-2.108607 -0.492008,-1.194877 -0.492008,-2.530328 z"
         id="path833" />
      <path
         d="m 81.850387,47.851908 9.207585,-3.022336 2.108607,6.677255 -9.207584,2.95205 5.833813,8.012707 -5.833813,4.287502 -5.9041,-8.082994 -5.693239,7.731559 -5.69324,-4.287501 5.9041,-7.661273 -9.348158,-3.233197 2.249181,-6.677256 9.207584,3.303484 v -9.699592 h 7.169264 z"
         id="path835" />
      <path
         d="m 96.640286,94.662986 q 2.108607,-3.373771 3.795494,-6.466395 1.68688,-3.092624 2.81147,-6.255534 1.19488,-3.233198 1.82746,-6.677256 0.63259,-3.514345 0.63259,-7.590986 0,-4.07664 -0.63259,-7.520698 -0.63258,-3.514346 -1.82746,-6.677256 -1.12459,-3.233198 -2.81147,-6.325822 -1.686887,-3.092623 -3.795494,-6.466395 l 7.239554,-4.217214 0.14057,0.281148 q 4.8498,7.239551 7.45041,14.760249 2.6709,7.450412 2.6709,16.165988 0,8.715576 -2.6709,16.236275 -2.60061,7.450412 -7.45041,14.689963 l -0.14057,0.281147 z"
         id="path837" />
    </g>
  </g>
</svg>
